PathFileType	4	(X/Y/Z)	27_2_72_p0_0-263.trc
DataRate	CameraRate	NumFrames	NumMarkers	Units	OrigDataRate	OrigDataStartFrame	OrigNumFrames
60.0	60.0	6	27	m	60.0	33	264
Frame#	Time	RHip			RKnee			RAnkle			RBigToe			RSmallToe			RHeel			LHip			LKnee			LAnkle			LBigToe			LSmallToe			LHeel			Neck			Head			Nose			RShoulder			RElbow			RWrist			RThumb			RIndex			RPinky			LShoulder			LElbow			LWrist			LThumb			LIndex			LPinky			
		X1	Y1	Z1	X2	Y2	Z2	X3	Y3	Z3	X4	Y4	Z4	X5	Y5	Z5	X6	Y6	Z6	X7	Y7	Z7	X8	Y8	Z8	X9	Y9	Z9	X10	Y10	Z10	X11	Y11	Z11	X12	Y12	Z12	X13	Y13	Z13	X14	Y14	Z14	X15	Y15	Z15	X16	Y16	Z16	X17	Y17	Z17	X18	Y18	Z18	X19	Y19	Z19	X20	Y20	Z20	X21	Y21	Z21	X22	Y22	Z22	X23	Y23	Z23	X24	Y24	Z24	X25	Y25	Z25	X26	Y26	Z26	X27	Y27	Z27	
33	0.55	0.13975589119905926	0.5809759310019468	0.8637224894934672	0.16107295240680386	0.7062176896080962	1.353090971701964	0.18455434253754863	0.8096913118026171	1.8175078554445623	0.12779096894505707	0.6041226602448335	1.849822938169616	0.18768691324264394	0.5983969044803846	1.8285413185233896	0.1615226751815717	0.9055784524858921	1.8950289370498437	-0.0823900325765651	0.6434550178882223	0.8847104937645616	-0.05464566968029666	0.7435797884367985	1.365444827130238	-0.024653562296868634	0.7920948322718285	1.818895761860531	-0.03539297154148102	0.5954576435299306	1.8348090537478272	-0.08589412252513148	0.6490989756189428	1.848306172036751	0.0039456223459540625	0.8705103263173907	1.8823415689275462	-0.0025837164471816353	0.5669382348860335	0.31586720230547244	-0.00016070359781791954	0.4878396800228567	0.07467916392767873	-0.016272104556168284	0.425643241391596	0.19718753904153818	0.16067197819357673	0.5408731646005834	0.4046562631386854	0.18747670898184537	0.5324641313585635	0.6799394289079377	0.10184879531840821	0.47858248830385014	0.9220223438939538	0.02936335880434536	0.4228132811697597	0.9970338998602171	0.02698801857144334	0.4635017500487171	1.038790079109732	0.0240456233967452	0.4821214999783043	1.039677918708156	-0.16361073917459978	0.5688788826697317	0.4186918678135574	-0.1694269726510933	0.5734685500815638	0.6866131086338669	-0.07316342963670211	0.46684872424992024	0.9032621680529049	0.05018064471986815	0.41108532623514216	0.9588810437685567	0.04999777030551085	0.4228279124231601	0.9847693494404152	0.005381054096208415	0.48002321220019356	1.0408732691383717
34	0.5666666666666667	0.14008435321037066	0.5806636203096173	0.8597629250265262	0.16096061888067287	0.7058753184443483	1.3527911320318993	0.18461250402881746	0.8095212306250713	1.8173183462461766	0.13381696495496223	0.6181286732812836	1.856405735421213	0.18874527929726384	0.5979018142249286	1.82387762760918	0.16272191574932285	0.9045618565526613	1.8891257006205784	-0.08238636547891948	0.6435402272268202	0.884562057363117	-0.054632959768090954	0.7436724946413376	1.365401663093009	-0.023387840489801803	0.7939010259795036	1.8244397793947644	-0.03101138397274824	0.5969102238273757	1.8354777132449274	-0.08156592786344498	0.6494374604754118	1.8483732607070054	0.003977252958893209	0.8697926593244242	1.8818191879209107	-0.0025827161692735896	0.5666898218159155	0.3157814284623194	0.00022192409161424757	0.4876332324831462	0.07782323428955748	-0.016161820367234965	0.4255876167384426	0.19709126560100457	0.15673411457929157	0.540792168474019	0.4014668470479893	0.18732514807431275	0.5323648920344166	0.679816499047865	0.10188894249037951	0.4787050328638161	0.9219974099461687	0.02909184080651566	0.409906254716438	0.9936312701803809	0.027329224272224	0.4613105639438216	1.0391269128645677	0.024217783592191535	0.4819963131632925	1.0366335894690037	-0.15982904481594554	0.569778246738242	0.418544327303778	-0.16943870561572788	0.5734730115605384	0.6865164925052408	-0.0731562046909686	0.4668761020895406	0.903287354260401	0.05289832707415857	0.39912772795138884	0.9558858515029215	0.05268544746652615	0.41132927271550573	0.981631280060329	0.009239364954914404	0.49046999239556105	1.043839402481213
35	0.5833333333333334	0.1391853239756031	0.579220063828656	0.8553331223510462	0.15563080821805347	0.6927991070921521	1.3487079160315227	0.1846198563569565	0.8096576959973307	1.8173956438780632	0.1279181462101242	0.6041255800492024	1.8495313843145909	0.18783620619786517	0.5982307283110414	1.8283540524204749	0.16271016659232657	0.9050296887325564	1.8893636129098215	-0.08200723429885778	0.643147110790193	0.8811450195140109	-0.05552383947833953	0.7154236852568165	1.355765078341136	-0.02334886981819412	0.794369304259455	1.8246924836400689	-0.03538908853561862	0.5951721098237494	1.8345663574206013	-0.0815918075443907	0.6494635982092096	1.848435621993741	0.008737679772923508	0.872778837644069	1.883183157170993	-0.0025610911234416264	0.5667602814413546	0.31578708681746603	0.0037740114659285022	0.4985139019179349	0.07025050285950347	-0.016014014988629467	0.42556681054708756	0.19694913424908098	0.15668667796158092	0.5407401550118845	0.4014190581965729	0.18729744942627533	0.5323690374256458	0.6798848280175915	0.10183999956439818	0.47880527282363466	0.9220814040672151	0.029059134899519952	0.4102634535398646	0.9938007771136086	0.02729232715691217	0.46183485221250475	1.0391646611699712	0.023742452686669243	0.48225750096652725	1.0393193683511768	-0.1637350246680641	0.568566886419873	0.4186790158058652	-0.16593637429836866	0.5606779666456447	0.6847851143748778	-0.07344598273270436	0.467208245030248	0.906629122388222	0.05269841696198256	0.3991601247756042	0.9560038821237749	0.04885592183158601	0.4106027258032637	0.98170157993512	0.010065942815864197	0.49182255403300235	1.0475707641165732
36	0.6	0.13498598505623857	0.5681066664178588	0.8577453407701009	0.1556496833732627	0.6930878651677227	1.349193943303807	0.17919754874624733	0.7951869172028312	1.810562629663921	0.13118755806247195	0.590172753319313	1.844756329497271	0.19415928731889343	0.5998071408087816	1.8333005708123808	0.16301725332702946	0.905015158978651	1.8891678493410518	-0.08211002210364861	0.6427763710093916	0.8886931864884317	-0.055238649783736646	0.7145527278663789	1.3592709044870952	-0.028140148641747447	0.7927589221880443	1.8239999873905013	-0.03065721328388724	0.596962411844514	1.834477764744606	-0.08103924281244643	0.649268571571601	1.847866137051786	0.005290205559458214	0.8719683584262644	1.8873800028645322	-0.002143283394761633	0.5673354552221925	0.31931268861326656	0.0039085390411319355	0.49853785665134037	0.07356505644416339	-0.015998013001894303	0.4254716584412793	0.19696772468477938	0.15658197934995452	0.5403079965747394	0.40138235294074026	0.1841520840990333	0.5338289542433984	0.6842034819744878	0.10178123884980984	0.478535660039149	0.9219677894639076	0.04042481860385516	0.40898640025356825	0.9931488473720077	0.031081085106952937	0.4487200206157403	1.039232014434898	0.023944233293435372	0.48212466086002587	1.0355434541170472	-0.15976972009864623	0.5696200413369336	0.4185466204023462	-0.16887385264879073	0.5749226539638193	0.6901664213930633	-0.07744408559620489	0.4672967342835297	0.9068667730045357	0.0539028384577461	0.40062074635350375	0.9599913694769739	0.053409617269096564	0.4107182847051729	0.9818357131582381	0.006210348480042928	0.4819626271858371	1.0455108203042067
37	0.6166666666666667	0.1340289886497839	0.5666910992185746	0.8533454396086225	0.15539179892094068	0.6926034746104939	1.3486065008328534	0.1791721817231601	0.7955585429172667	1.8104684798563326	0.13211680936618767	0.5901230418312274	1.8399659950175693	0.1927207344452148	0.5986905425125791	1.8275469774646662	0.16396254139033617	0.9047406447462362	1.8835915988878071	-0.08210760049540743	0.6426313580056094	0.8887147674155496	-0.055232531869807894	0.7146376796096652	1.359143806778272	-0.028272076373251215	0.7927203012125023	1.824000511317039	-0.03495977083213475	0.5837962775105132	1.827877041419951	-0.08118414746846343	0.6495635356720093	1.8482725318640645	0.005066563526989335	0.8723431602359599	1.8876322363302493	-0.0027071013732281437	0.5664197001477032	0.309049241056734	0.004179493763388832	0.4984207763721831	0.07360835024958214	-0.015980541905312378	0.42535321814713595	0.19694541658802717	0.1565628452621416	0.5402150948867823	0.40141937947188144	0.1883322249488166	0.5336884124570428	0.6839833391300076	0.1017928411618793	0.4786608626742078	0.9220183583596303	0.03688227710877909	0.4095441507557909	0.9933958145372102	0.02779494468034835	0.460513271070569	1.042441930279905	0.023679434805686708	0.482565389487059	1.0389363796572466	-0.15971866223841577	0.5697352886573129	0.4185614595495829	-0.16889686621398062	0.574933934534361	0.6902074314239937	-0.07753979686817485	0.46718562508011074	0.906775300664561	0.05423431518491793	0.39992325503236986	0.9630475212796318	0.053069405761043874	0.41047056085971856	0.9818073342705907	0.009224280051964039	0.4907293780813972	1.0445391430227389
38	0.6333333333333333	0.13375264587857916	0.5669130959496906	0.8570011442487759	0.15548413102310357	0.69283214036171	1.3488102124249695	0.18463179553057166	0.810116005099791	1.817408538781097	0.13114943439414242	0.5908220696079399	1.844918667244322	0.19289346275537167	0.5990709355218524	1.8276302861223417	0.16272409525998194	0.9054097018597903	1.8893705844111064	-0.08246981510234731	0.6431647637667959	0.8920449528872948	-0.0467057211215861	0.728642818523123	1.363714590460894	-0.028241118909884417	0.792839767289657	1.8238708800725199	-0.030575122963129902	0.5977188686793902	1.8350320419898363	-0.0811249550226272	0.6505797636149834	1.8488775175946552	0.0003017823739261349	0.8700508857043966	1.8866202432440846	-0.002721463958010265	0.5665726392651645	0.3123491460805057	0.004089401704432748	0.49842364342552126	0.07357739762074729	-0.01592800945244397	0.4253569899527792	0.1968722608596413	0.156574621947194	0.5402306140138523	0.4047155795691574	0.18836943641120188	0.5335881774324381	0.6840108047838925	0.10177275317880355	0.4785553717145795	0.9220281145513236	0.04048158599607226	0.408952304414318	0.9932603489702051	0.030614414783321154	0.44925674913751523	1.0423487448102324	0.02364435651102044	0.4826239517877548	1.0387301663113673	-0.1596038199410526	0.5699134787093674	0.41857509979034585	-0.16890421688375779	0.5749786395084313	0.6901512201316655	-0.07747327341912455	0.46721835909640075	0.9068196145216285	0.05418111735033422	0.4008286975947663	0.9600530180125963	0.05369134919002796	0.41124206350863185	0.9821397292839287	0.0062580969930156076	0.4820261935171448	1.0455847386501966
